PathFileType	4	(X/Y/Z)	C:/Users/beibeiliu/ov580/test_trc/User2\sequence.32_training_dense_left.trc
DataRate	CameraRate	NumFrames	NumMarkers	Units	OrigDataRate	OrigDataStartFrame	OrigNumFrames
120	120	15	19	mm	120	84	111
Frame#	Time	ThumbCMC			ThumbMCP			ThumbIP			ThumbTip			IndexMCP			IndexPIP			IndexTip			MiddleMCP			MiddlePIP			MiddleTip			RingMCP			RingPIP			RingTip			PinkyMCP			PinkyPIP			PinkyTip			BackHand1			BackHand2			BackHand3	
		X0	Y0	Z0	X1	Y1	Z1	X2	Y2	Z2	X3	Y3	Z3	X4	Y4	Z4	X5	Y5	Z5	X6	Y6	Z6	X7	Y7	Z7	X8	Y8	Z8	X9	Y9	Z9	X10	Y10	Z10	X11	Y11	Z11	X12	Y12	Z12	X13	Y13	Z13	X14	Y14	Z14	X15	Y15	Z15	X16	Y16	Z16	X17	Y17	Z17	X18	Y18	Z18	
83	0.691667	-214.204	28.9429	-18.7815	-192.702	21.8854	-42.6293	-176.544	16.9538	-70.9664	-158.498	11.9966	-88.415	-249.559	48.0898	-93.8867	-254.24	51.11	-122.788	-258.314	51.7453	-149.851	-273.393	14.402	-101.179	-262.09	-19.5708	-104.239	-248.379	-24.6355	-68.5316	-283.665	-4.29727	-87.1577	-268.637	-32.7726	-84.1805	-253.076	-23.9163	-49.8543	-296.381	-16.0349	-69.0643	-274.237	-40.6025	-64.8245	-257.165	-25.6982	-39.0431	-290.373	29.7235	-34.706	-283.618	32.3521	0.845838	-253.784	47.0495	-23.8287	
84	0.7	-191.077	8.20042	-22.451	-171.077	-5.25619	-41.2606	-147.992	-14.1012	-63.9947	-133.582	-24.5699	-76.506	-220.969	20.6733	-97.5528	-223.551	19.0499	-129.412	-222.347	19.94	-152.25	-246.086	-10.6236	-101.24	-243.993	-44.9885	-98.4905	-229.384	-43.2463	-59.2462	-264.456	-27.3991	-84.8169	-248.536	-53.6449	-71.9454	-236.47	-36.3372	-42.2521	-274.844	-32.3244	-69.301	-258.613	-56.4035	-53.9658	-243.084	-37.8418	-31.8147	-268.405	19.6884	-39.4432	-258.919	24.1957	-1.95781	-227.308	30.4208	-28.2008	
85	0.708333	-176.016	2.31083	-15.9263	-157.258	-12.2717	-34.4735	-133.722	-23.2776	-53.4505	-112.107	-30.9493	-63.4332	-203.346	-1.27536	-98.887	-202.259	-7.44939	-122.412	-201.84	-11.7851	-150.538	-225.072	-31.0295	-94.317	-215.946	-65.9439	-82.303	-208.105	-54.6863	-47.3657	-243.61	-48.8195	-76.613	-224.757	-69.2019	-59.792	-219.144	-45.0106	-30.5463	-255.822	-54.4451	-60.7705	-234.914	-67.7863	-41.1787	-226.853	-40.8951	-17.9481	-252.231	5.12674	-38.988	-245.465	17.2233	-8.98259	-212.5	21.0027	-26.7728	
86	0.716667	-173.892	17.6243	-9.776	-146.814	8.77623	-24.46	-118.353	5.00186	-38.1892	-94.691	-0.0630076	-50.7405	-190.137	-4.7282	-91.5375	-181.707	-12.2388	-118.606	-179.402	-23.4754	-145.12	-205.128	-38.8781	-82.8432	-186.523	-66.55	-68.9988	-184.962	-46.3849	-29.685	-213.904	-55.2487	-65.9407	-196.145	-69.116	-41.4313	-196.644	-43.8363	-20.0109	-226.908	-59.4887	-51.2403	-203.84	-63.8751	-27.4505	-208.943	-38.8704	-9.35242	-242.274	-3.60773	-36.6349	-242.753	14.8612	-11.0814	-210.217	25.1132	-28.1077	
87	0.725	-182.306	41.5378	-7.81	-152.963	43.6165	-19.556	-126.13	44.1943	-35.0198	-101.69	51.7664	-40.172	-181.526	4.63134	-89.3405	-171.18	-5.04047	-110.957	-160.458	-17.1067	-135.445	-178.499	-29.6737	-76.197	-154.035	-46.6288	-55.4248	-162.002	-28.9931	-21.4581	-189.278	-49.3719	-57.1488	-166.943	-52.5599	-33.8426	-179.586	-25.0096	-11.6318	-200.06	-54.5019	-42.4503	-179.675	-51.2474	-14.4268	-194.471	-26.7457	-2.5572	-236.734	-7.44721	-37.9197	-247.886	11.0125	-8.28484	-218.567	30.3573	-29.0169	
88	0.733333	-200.677	57.9961	-12.2746	-176.01	68.889	-21.6546	-147.732	85.1147	-39.2096	-127.057	93.3412	-46.2089	-180.68	16.9024	-83.6475	-162.138	9.60401	-109.276	-149.253	-2.43341	-126.308	-163.311	-14.722	-68.676	-136.761	-16.9818	-43.8764	-149.306	0.563281	-14.0195	-169.263	-31.4395	-48.9689	-147.337	-24.8127	-26.8784	-168.969	-4.38168	-5.72895	-175.83	-39.4226	-35.1556	-159.737	-27.1319	-9.93132	-183.029	-10.4503	4.17416	-228.752	-8.21996	-35.7893	-248.485	2.54439	-11.241	-224.842	30.9562	-33.8459	
89	0.741667	-219.221	61.9999	-16.7649	-200.685	81.2531	-28.4873	-178.489	101.106	-46.1817	-166.527	118.898	-50.8704	-179.93	26.7448	-83.8086	-158.92	23.6456	-105.87	-139.916	20.0419	-125.811	-154.265	7.34663	-65.9351	-128.948	19.7107	-42.4435	-148.808	29.9659	-10.4136	-151.964	-6.1875	-46.1888	-135.773	6.63918	-21.1843	-165.122	21.1357	-5.25114	-158.239	-21.5707	-28.1124	-148.474	2.07612	-4.57566	-179.677	11.3701	1.9411	-216.413	-13.2269	-32.6844	-241.952	-7.50489	-9.82055	-231.416	26.6823	-35.9688	
90	0.75	-236.424	58.228	-21.0952	-220.756	78.97	-35.4952	-207.6	107.141	-57.1443	-198.708	124.357	-65.8866	-183.705	29.089	-84.6596	-164.677	31.8485	-104.821	-140.209	32.8861	-125.404	-157.126	22.4959	-65.9101	-132.219	42.6889	-47.0729	-156.283	52.2547	-12.9484	-148.253	12.4557	-46.4887	-135.811	34.3814	-22.8171	-171.206	35.9868	-4.02651	-143.454	1.38766	-24.8319	-145.215	27.0265	-7.335	-175.829	26.2977	0.755507	-205.532	-9.65473	-32.0036	-227.703	-14.801	-8.73591	-234.382	18.1421	-37.205	
91	0.758333	-245.898	44.8671	-27.3695	-240.294	69.7619	-43.366	-233.664	95.3203	-64.1737	-229.133	113.222	-74.3692	-186.828	28.37	-93.3474	-168.88	31.5143	-110.161	-148.67	37.3312	-129.991	-161.171	30.0387	-70.6266	-143.659	60.7699	-49.7726	-167.75	63.8769	-18.9896	-144.152	27.4234	-48.9048	-141.527	48.6108	-27.3988	-173.567	45.5283	-8.83654	-145.026	13.1515	-28.96	-149.665	41.3124	-9.24675	-181.04	31.5078	-0.160729	-196.605	-13.4433	-33.174	-219.161	-20.9177	-10.2624	-229.126	6.05144	-38.2472	
92	0.766667	-255.508	33.3624	-29.0418	-253.201	55.8708	-45.7286	-254.326	81.4129	-73.3817	-253.389	99.7733	-85.2771	-197.947	22.122	-93.4538	-181.088	27.6384	-117.723	-163.925	33.3284	-134.946	-167.475	30.7727	-75.0596	-157.198	63.2368	-58.66	-184.544	68.1068	-27.9743	-153.143	31.1174	-54.2479	-155.7	57.6389	-35.1025	-184.996	52.9324	-17.8021	-148.24	22.8135	-35.0829	-159.854	49.9474	-18.9548	-189.39	33.9985	-9.43349	-194.248	-15.9191	-32.4529	-219.916	-24.183	-7.39227	-232.172	-4.17757	-34.8626	
93	0.775	-267.693	26.945	-29.6079	-270.781	50.0497	-51.7927	-274.805	71.953	-72.9136	-282.782	90.8703	-86.6982	-220.385	17.2614	-99.8353	-205.432	22.486	-123.29	-188.807	27.6415	-148.099	-186.563	33.1211	-86.9218	-177.049	63.6663	-73.4605	-197.288	66.0234	-37.5763	-168.94	33.8586	-64.7208	-171.629	58.0333	-49.0551	-202.281	51.5656	-26.6436	-165.342	25.8334	-48.1784	-176.59	52.0184	-30.3323	-201.147	32.2728	-16.6876	-208.552	-16.7224	-40.0578	-227.16	-23.7407	-11.8824	-245.688	-8.57841	-38.9164	
94	0.783333	-280.037	25.5028	-28.3865	-288.292	51.1304	-49.8733	-292.05	72.9387	-77.4659	-294.262	89.2332	-88.8318	-243.457	11.1365	-107.634	-229.77	11.2234	-129.226	-218.778	14.359	-153.351	-209.814	22.5377	-97.5824	-195.524	54.4801	-85.6241	-210.046	57.8036	-46.5885	-190.079	21.6601	-76.896	-187.77	48.0521	-63.0164	-212.36	43.6213	-31.8921	-183.529	15.4521	-58.8209	-184.889	40.8806	-39.2431	-213.821	28.2192	-21.3514	-229.216	-20.6898	-42.992	-244.008	-29.3813	-13.717	-262.688	-10.7046	-39.0741	
95	0.791667	-289.419	33.0212	-27.9754	-289.727	57.4271	-47.3132	-289.891	76.3766	-77.0891	-291.828	97.7868	-87.8178	-271.134	2.98137	-109.798	-261.735	-1.1386	-134.227	-252.377	-5.05626	-161.112	-232.957	0.9901	-102.963	-209.873	26.2835	-99.4299	-216.529	38.0748	-57.9886	-212.809	-3.32425	-85.1989	-199.729	19.8164	-74.1194	-218.507	27.6686	-43.6418	-205.46	-13.828	-66.2743	-201.283	18.18	-47.4335	-227.949	14.8676	-30.4478	-258.241	-32.3866	-47.5682	-271.274	-28.9998	-13.0213	-291.338	-4.88693	-39.634	
96	0.8	-291.811	38.2829	-29.5033	-284.768	55.6523	-52.8083	-283.226	79.9469	-81.0961	-277.727	93.8211	-96.1857	-298.003	-0.364324	-104.629	-297.603	-6.72675	-132.686	-294.682	-19.4384	-158.591	-264.88	-17.6629	-101.544	-229.073	-4.92099	-102.63	-226.749	12.2604	-67.8047	-245.881	-26.5269	-90.8214	-220.877	-8.8124	-80.6967	-232.907	4.13609	-49.8176	-237.109	-36.6977	-72.5085	-221.043	-11.9709	-57.1798	-240.002	-5.34485	-33.2204	-290.724	-35.7357	-43.3447	-299.483	-30.3206	-10.5234	-308.146	4.29432	-33.0094	
97	0.808333	-292.829	34.8022	-30.0586	-283.788	48.4622	-56.0993	-278.061	61.1128	-85.2516	-272.062	76.4401	-108.235	-321.725	-4.35118	-96.2183	-328.711	-17.242	-125.526	-334.293	-30.911	-149.233	-293.585	-34.5603	-97.2413	-255.738	-30.8447	-104.084	-244.263	-10.884	-72.6729	-278.117	-47.189	-86.7187	-247.276	-40.5348	-81.1374	-249.852	-18.508	-51.7178	-271.259	-57.9608	-68.0688	-245.105	-36.9223	-60.0422	-258.322	-20.6164	-34.2266	-318.128	-32.47	-36.0702	-316.394	-23.1321	0.98999	-320.12	4.38235	-31.2014	
